HIERARCHY
ROOT Hips
{
  OFFSET 5.72205e-005 65.662 3.42586
  CHANNELS 6 Xposition Yposition Zposition Zrotation Xrotation Yrotation
  JOINT Chest
  {
    OFFSET 0 8.7983 -4.7612
    CHANNELS 6 Xposition Yposition Zposition Zrotation Xrotation Yrotation
    JOINT Chest2
    {
      OFFSET 0 8.0291 0.4195
      CHANNELS 6 Xposition Yposition Zposition Zrotation Xrotation Yrotation
      JOINT Chest3
      {
        OFFSET 0 9.9351 -2.2114
        CHANNELS 6 Xposition Yposition Zposition Zrotation Xrotation Yrotation
        JOINT Neck
        {
          OFFSET 0 22.3885 -0.4656
          CHANNELS 6 Xposition Yposition Zposition Zrotation Xrotation Yrotation
          JOINT Head
          {
            OFFSET -0.0001 12.643 3.4389
            CHANNELS 6 Xposition Yposition Zposition Zrotation Xrotation Yrotation
            End Site
            {
              OFFSET 0.0001 17.6655 0.5274
            }
          }
        }
        JOINT LeftCollar
        {
          OFFSET 2.2603 21.606 7.4023
          CHANNELS 6 Xposition Yposition Zposition Zrotation Xrotation Yrotation
          JOINT LeftShoulder
          {
            OFFSET 13.5163 -1.1332 -5.0146
            CHANNELS 6 Xposition Yposition Zposition Zrotation Xrotation Yrotation
            JOINT LeftElbow
            {
              OFFSET -0.0995 -28.05 -0.2431
              CHANNELS 6 Xposition Yposition Zposition Zrotation Xrotation Yrotation
              JOINT LeftWrist
              {
                OFFSET 0.0679 -23.3996 -0.1402
                CHANNELS 6 Xposition Yposition Zposition Zrotation Xrotation Yrotation
                JOINT LeftFinger1
                {
                  OFFSET 0.7932 -9.069 2.5189
                  CHANNELS 6 Xposition Yposition Zposition Zrotation Xrotation Yrotation
                  JOINT LeftFinger11
                  {
                    OFFSET -0.8272 -3.3923 0.5977
                    CHANNELS 6 Xposition Yposition Zposition Zrotation Xrotation Yrotation
                    JOINT LeftFinger12
                    {
                      OFFSET -0.5649 -2.3158 0.4082
                      CHANNELS 6 Xposition Yposition Zposition Zrotation Xrotation Yrotation
                      End Site
                      {
                        OFFSET -0.4919 -1.6479 0.2673
                      }
                    }
                  }
                }
                JOINT LeftFinger2
                {
                  OFFSET 0.9159 -9.2044 0.2193
                  CHANNELS 6 Xposition Yposition Zposition Zrotation Xrotation Yrotation
                  JOINT LeftFinger21
                  {
                    OFFSET 0.0117 -4.1944 -0.0248
                    CHANNELS 6 Xposition Yposition Zposition Zrotation Xrotation Yrotation
                    JOINT LeftFinger22
                    {
                      OFFSET 0.0071 -2.3249 -0.0142
                      CHANNELS 6 Xposition Yposition Zposition Zrotation Xrotation Yrotation
                      End Site
                      {
                        OFFSET -0.1475 -2.0882 0.0028
                      }
                    }
                  }
                }
                JOINT LeftFinger3
                {
                  OFFSET 0.6113 -8.7231 -2.0637
                  CHANNELS 6 Xposition Yposition Zposition Zrotation Xrotation Yrotation
                  JOINT LeftFinger31
                  {
                    OFFSET -0.1927 -3.8059 -0.2383
                    CHANNELS 6 Xposition Yposition Zposition Zrotation Xrotation Yrotation
                    JOINT LeftFinger32
                    {
                      OFFSET -0.1091 -2.1688 -0.1362
                      CHANNELS 6 Xposition Yposition Zposition Zrotation Xrotation Yrotation
                      End Site
                      {
                        OFFSET -0.2358 -1.9176 -0.0906
                      }
                    }
                  }
                }
                JOINT LeftFinger4
                {
                  OFFSET -0.6151 -8.0947 -3.5641
                  CHANNELS 6 Xposition Yposition Zposition Zrotation Xrotation Yrotation
                  JOINT LeftFinger41
                  {
                    OFFSET -0.4882 -2.341 -0.6462
                    CHANNELS 6 Xposition Yposition Zposition Zrotation Xrotation Yrotation
                    JOINT LeftFinger42
                    {
                      OFFSET -0.3575 -1.7167 -0.4742
                      CHANNELS 6 Xposition Yposition Zposition Zrotation Xrotation Yrotation
                      End Site
                      {
                        OFFSET -0.4187 -1.5237 -0.3496
                      }
                    }
                  }
                }
                JOINT LeftFinger0
                {
                  OFFSET -1.42 -1.8761 1.4223
                  CHANNELS 6 Xposition Yposition Zposition Zrotation Xrotation Yrotation
                  JOINT LeftFinger01
                  {
                    OFFSET -1.1471 -3.4929 2.6334
                    CHANNELS 6 Xposition Yposition Zposition Zrotation Xrotation Yrotation
                    JOINT LeftFinger02
                    {
                      OFFSET -0.823 -2.3 1.6571
                      CHANNELS 6 Xposition Yposition Zposition Zrotation Xrotation Yrotation
                      End Site
                      {
                        OFFSET -0.5822 -1.6914 1.1582
                      }
                    }
                  }
                }
              }
            }
          }
        }
        JOINT RightCollar
        {
          OFFSET -2.2603 21.606 7.4023
          CHANNELS 6 Xposition Yposition Zposition Zrotation Xrotation Yrotation
          JOINT RightShoulder
          {
            OFFSET -13.5187 -1.1334 -5.0155
            CHANNELS 6 Xposition Yposition Zposition Zrotation Xrotation Yrotation
            JOINT RightElbow
            {
              OFFSET 0.0994 -28.0499 -0.2431
              CHANNELS 6 Xposition Yposition Zposition Zrotation Xrotation Yrotation
              JOINT RightWrist
              {
                OFFSET -0.0679 -23.3996 -0.1402
                CHANNELS 6 Xposition Yposition Zposition Zrotation Xrotation Yrotation
                JOINT RightFinger1
                {
                  OFFSET -0.7932 -9.0691 2.5189
                  CHANNELS 6 Xposition Yposition Zposition Zrotation Xrotation Yrotation
                  JOINT RightFinger11
                  {
                    OFFSET 0.8272 -3.3923 0.5977
                    CHANNELS 6 Xposition Yposition Zposition Zrotation Xrotation Yrotation
                    JOINT RightFinger12
                    {
                      OFFSET 0.565 -2.3158 0.4082
                      CHANNELS 6 Xposition Yposition Zposition Zrotation Xrotation Yrotation
                      End Site
                      {
                        OFFSET 0.4919 -1.6479 0.2673
                      }
                    }
                  }
                }
                JOINT RightFinger2
                {
                  OFFSET -0.916 -9.2044 0.2193
                  CHANNELS 6 Xposition Yposition Zposition Zrotation Xrotation Yrotation
                  JOINT RightFinger21
                  {
                    OFFSET -0.0117 -4.1944 -0.0248
                    CHANNELS 6 Xposition Yposition Zposition Zrotation Xrotation Yrotation
                    JOINT RightFinger22
                    {
                      OFFSET -0.0071 -2.3249 -0.0142
                      CHANNELS 6 Xposition Yposition Zposition Zrotation Xrotation Yrotation
                      End Site
                      {
                        OFFSET 0.1475 -2.0882 0.0028
                      }
                    }
                  }
                }
                JOINT RightFinger3
                {
                  OFFSET -0.6113 -8.7231 -2.0637
                  CHANNELS 6 Xposition Yposition Zposition Zrotation Xrotation Yrotation
                  JOINT RightFinger31
                  {
                    OFFSET 0.1927 -3.8059 -0.2383
                    CHANNELS 6 Xposition Yposition Zposition Zrotation Xrotation Yrotation
                    JOINT RightFinger32
                    {
                      OFFSET 0.1091 -2.1688 -0.1362
                      CHANNELS 6 Xposition Yposition Zposition Zrotation Xrotation Yrotation
                      End Site
                      {
                        OFFSET 0.2358 -1.9176 -0.0906
                      }
                    }
                  }
                }
                JOINT RightFinger4
                {
                  OFFSET 0.6151 -8.0947 -3.564
                  CHANNELS 6 Xposition Yposition Zposition Zrotation Xrotation Yrotation
                  JOINT RightFinger41
                  {
                    OFFSET 0.4882 -2.341 -0.6462
                    CHANNELS 6 Xposition Yposition Zposition Zrotation Xrotation Yrotation
                    JOINT RightFinger42
                    {
                      OFFSET 0.3574 -1.7166 -0.4742
                      CHANNELS 6 Xposition Yposition Zposition Zrotation Xrotation Yrotation
                      End Site
                      {
                        OFFSET 0.4187 -1.5237 -0.3496
                      }
                    }
                  }
                }
                JOINT RightFinger0
                {
                  OFFSET 1.4199 -1.8761 1.4221
                  CHANNELS 6 Xposition Yposition Zposition Zrotation Xrotation Yrotation
                  JOINT RightFinger01
                  {
                    OFFSET 1.1472 -3.4929 2.6336
                    CHANNELS 6 Xposition Yposition Zposition Zrotation Xrotation Yrotation
                    JOINT RightFinger02
                    {
                      OFFSET 0.8229 -2.3 1.6571
                      CHANNELS 6 Xposition Yposition Zposition Zrotation Xrotation Yrotation
                      End Site
                      {
                        OFFSET 0.5822 -1.6914 1.1582
                      }
                    }
                  }
                }
              }
            }
          }
        }
      }
    }
  }
  JOINT RightHip
  {
    OFFSET -9.412 3.9771 -0.7758
    CHANNELS 6 Xposition Yposition Zposition Zrotation Xrotation Yrotation
    JOINT RightKnee
    {
      OFFSET -0.7531 -40.938 0
      CHANNELS 6 Xposition Yposition Zposition Zrotation Xrotation Yrotation
      JOINT RightAnkle
      {
        OFFSET 0 -40.1986 0
        CHANNELS 6 Xposition Yposition Zposition Zrotation Xrotation Yrotation
        JOINT RightToe
        {
          OFFSET 0 -4.4182 9.239
          CHANNELS 6 Xposition Yposition Zposition Zrotation Xrotation Yrotation
          End Site
          {
            OFFSET 0 0 6.1981
          }
        }
      }
    }
  }
  JOINT LeftHip
  {
    OFFSET 9.4119 3.9773 -0.7758
    CHANNELS 6 Xposition Yposition Zposition Zrotation Xrotation Yrotation
    JOINT LeftKnee
    {
      OFFSET 0.7532 -40.9383 0
      CHANNELS 6 Xposition Yposition Zposition Zrotation Xrotation Yrotation
      JOINT LeftAnkle
      {
        OFFSET 0 -40.1986 0
        CHANNELS 6 Xposition Yposition Zposition Zrotation Xrotation Yrotation
        JOINT LeftToe
        {
          OFFSET 0 -4.4182 9.239
          CHANNELS 6 Xposition Yposition Zposition Zrotation Xrotation Yrotation
          End Site
          {
            OFFSET 0 0 6.1981
          }
        }
      }
    }
  }
}
MOTION
Frames:	4
Frame Time:	0.0333333
5.72205e-005 65.662 3.42586 0 0 -0 0 8.7983 -4.7612 0 0 -0 0 8.0291 0.4195 0 0 -0 0 9.9351 -2.2114 0 0 -0 0 22.3885 -0.4656 0 0 -0 -0.0001 12.643 3.4389 0 0 -0 2.2603 21.606 7.4023 0 0 -12.5014 13.5163 -1.1332 -5.0146 88.1196 14.2451 10.6914 -0.0995 -28.05 -0.2431 -0.00160068 -0.00239207 0.000740045 0.0679 -23.3996 -0.1402 -8.4365e-005 7.00714e-005 -9.52055e-007 0.7932 -9.069 2.5189 9.93923e-017 -1.98785e-016 -1.59028e-015 -0.8272 -3.3923 0.5977 9.93923e-017 -5.96354e-016 -1.59028e-015 -0.5649 -2.3158 0.4082 -9.93923e-017 -5.96354e-016 -1.59028e-015 0.9159 -9.2044 0.2193 9.93923e-017 -1.98785e-016 -1.59028e-015 0.0117 -4.1944 -0.0248 -0.0128176 0.00232552 8.52707e-005 0.0071 -2.3249 -0.0142 9.93923e-017 5.96354e-016 -0 0.6113 -8.7231 -2.0637 9.93923e-017 -1.98785e-016 -1.59028e-015 -0.1927 -3.8059 -0.2383 -0.0160551 0.00299681 0.000857156 -0.1091 -2.1688 -0.1362 -2.48481e-016 0 3.18055e-015 -0.6151 -8.0947 -3.5641 9.93923e-017 -1.98785e-016 -1.59028e-015 -0.4882 -2.341 -0.6462 -0.0125865 0.0031206 0.00282719 -0.3575 -1.7167 -0.4742 0 1.98785e-016 -0 -1.42 -1.8761 1.4223 9.93923e-017 -1.98785e-016 -1.59028e-015 -1.1471 -3.4929 2.6334 9.93923e-017 -5.96354e-016 -1.59028e-015 -0.823 -2.3 1.6571 -9.93923e-017 -5.96354e-016 -1.59028e-015 -2.2603 21.606 7.4023 -0.865644 0.16582 7.03859 -13.5187 -1.1334 -5.0155 -88.0329 10.2057 -10.5567 0.0994 -28.0499 -0.2431 0.0015593 -0.00248883 -0.000788628 -0.0679 -23.3996 -0.1402 7.87605e-005 4.10553e-005 1.24965e-005 -0.7932 -9.0691 2.5189 -3.97569e-016 -7.95139e-016 3.18055e-015 0.8272 -3.3923 0.5977 -1.98785e-016 -3.97569e-016 3.18055e-015 0.565 -2.3158 0.4082 -1.98785e-016 0 3.18055e-015 -0.916 -9.2044 0.2193 -3.97569e-016 -7.95139e-016 3.18055e-015 -0.0117 -4.1944 -0.0248 0.0129473 0.00231697 -8.70038e-005 -0.0071 -2.3249 -0.0142 9.93923e-017 -7.95139e-016 1.59028e-015 -0.6113 -8.7231 -2.0637 -3.97569e-016 -7.95139e-016 3.18055e-015 0.1927 -3.8059 -0.2383 0.0163314 0.00303369 -0.000872333 0.1091 -2.1688 -0.1362 3.97569e-016 7.95139e-016 -3.18055e-015 0.6151 -8.0947 -3.564 -3.97569e-016 -7.95139e-016 3.18055e-015 0.4882 -2.341 -0.6462 0.0145763 0.00367772 -0.00326275 0.3574 -1.7166 -0.4742 9.93923e-017 -3.97569e-016 -0 1.4199 -1.8761 1.4221 -3.97569e-016 -7.95139e-016 3.18055e-015 1.1472 -3.4929 2.6336 -1.98785e-016 -3.97569e-016 3.18055e-015 0.8229 -2.3 1.6571 -1.98785e-016 0 3.18055e-015 -9.412 3.9771 -0.7758 3.42482 1.32465 -0.0626183 -0.7531 -40.938 0 0.000117508 0.717283 0.000978199 0 -40.1986 0 -3.4257 -2.04197 -0.0604716 8.88178e-016 -4.4182 9.239 6.47761e-025 0 -0 9.4119 3.9773 -0.7758 -3.42483 1.34017 0.0627307 0.7532 -40.9383 -2.22045e-016 -0.000193936 0.682302 -0.0013703 -8.88179e-016 -40.1986 0 3.42574 -2.02253 0.0595886 -8.88178e-016 -4.4182 9.239 -8.45714e-024 0 -7.40531e-025 
-3.65247 33.6913 29.9699 -46.6897 -34.4637 118.082 3.55271e-015 8.7983 -4.7612 -0.442329 2.80922 -0.291557 0 8.0291 0.4195 -0.871892 5.62058 -0.562346 3.55271e-015 9.9351 -2.2114 -0.871899 5.62059 -0.562361 -3.55271e-015 22.3885 -0.4656 -4.19845e-006 -0.210974 -1.11958e-005 -0.0001 12.643 3.4389 7.93299e-007 -13.453 9.95573e-006 2.2603 21.606 7.4023 -1.48962 2.56892 5.79003 13.5163 -1.1332 -5.0146 112.956 -26.6662 29.2475 -0.0995 -28.05 -0.2431 76.6328 -34.521 99.6605 0.0679 -23.3996 -0.1402 18.5572 -2.56551 -25.1254 0.7932 -9.069 2.5189 -8.87385e-007 -1.62208e-006 3.68967e-006 -0.8272 -3.3923 0.5977 1.11914e-005 -2.5756e-006 7.6376e-006 -0.5649 -2.3158 0.4082 -4.37326e-015 -6.36111e-015 -2.38542e-015 0.9159 -9.2044 0.2193 -8.87385e-007 -1.62208e-006 3.68967e-006 0.0117 -4.1944 -0.0248 -0.0128663 0.00233702 8.9511e-005 0.0071 -2.3249 -0.0142 1.59028e-015 0 -2.38542e-015 0.6113 -8.7231 -2.0637 -8.87385e-007 -1.62208e-006 3.68967e-006 -0.1927 -3.8059 -0.2383 -0.0160354 0.00298546 0.000856125 -0.1091 -2.1688 -0.1362 -1.98785e-015 0 -7.95139e-016 -0.6151 -8.0947 -3.5641 -8.87385e-007 -1.62208e-006 3.68967e-006 -0.4882 -2.341 -0.6462 -0.0125336 0.00310914 0.00281151 -0.3575 -1.7167 -0.4742 -4.37326e-015 -6.36111e-015 -2.38542e-015 -1.42 -1.8761 1.4223 -8.87385e-007 -1.62208e-006 3.68967e-006 -1.1471 -3.4929 2.6334 1.11914e-005 -2.5756e-006 7.6376e-006 -0.823 -2.3 1.6571 -4.37326e-015 -6.36111e-015 -2.38542e-015 -2.2603 21.606 7.4023 6.23058 0.632838 -10.0151 -13.5187 -1.1334 -5.0155 -107.751 -29.8203 -27.2002 0.0994 -28.0499 -0.2431 -165.602 -76.6062 173.526 -0.0679 -23.3996 -0.1402 -19.0274 -3.0006 24.6513 -0.7932 -9.06911 2.5189 2.28462e-006 -1.0005e-006 4.23449e-006 0.8272 -3.3923 0.5977 3.18055e-015 0 7.95139e-015 0.565 -2.3158 0.4082 -1.76556e-031 3.18055e-015 3.18055e-015 -0.916 -9.20441 0.2193 2.28462e-006 -1.0005e-006 4.23449e-006 -0.0117 -4.1944 -0.0248 0.0129515 0.00231145 -9.14185e-005 -0.0071 -2.3249 -0.0142 -1.32417e-030 9.54166e-015 7.95139e-015 -0.6113 -8.72311 -2.0637 2.28462e-006 -1.0005e-006 4.23449e-006 0.1927 -3.8059 -0.2383 0.0162871 0.00301942 -0.00086834 0.1091 -2.1688 -0.1362 5.29669e-031 -1.90833e-014 1.59028e-015 0.6151 -8.09471 -3.564 2.28462e-006 -1.0005e-006 4.23449e-006 0.4882 -2.341 -0.6462 0.0145981 0.00368228 -0.0032679 0.3574 -1.7166 -0.4742 -3.18055e-015 0 -0 1.4199 -1.8761 1.4221 2.28462e-006 -1.0005e-006 4.23449e-006 1.1472 -3.4929 2.6336 3.18055e-015 0 7.95139e-015 0.8229 -2.3 1.6571 -1.76556e-031 3.18055e-015 3.18055e-015 -9.412 3.9771 -0.7758 -31.1053 -65.1906 -46.1166 -0.7531 -40.938 -1.77636e-015 -58.9524 87.8746 58.8997 7.10543e-015 -40.1986 0 -9.46088 29.9221 2.76344 0 -4.4182 9.239 -1.38288e-005 -1.92659e-006 5.60239e-007 9.4119 3.9773 -0.7758 30.8872 -65.1374 45.7963 0.7532 -40.9383 1.77636e-015 55.352 87.8236 -55.2606 -4.88498e-015 -40.1986 -8.88179e-016 9.34363 29.5468 -2.73644 3.55271e-015 -4.4182 9.239 1.08486e-006 1.17852e-005 4.15881e-006 
1.86476 21.7105 46.2794 54.1763 -73.7146 -124.71 -1.77636e-015 8.7983 -4.7612 -0.614351 4.08502 -0.458122 0 8.0291 0.4195 -1.20045 8.17469 -0.875522 0 9.9351 -2.2114 -1.20045 8.1747 -0.875527 0 22.3885 -0.4656 -6.05874e-006 -0.421753 -3.26964e-006 -0.0001 12.643 3.4389 -6.09849e-006 -18.9216 -7.79403e-007 2.2603 21.606 7.4023 -2.78893 3.50627 14.1632 13.5163 -1.1332 -5.0146 119.47 -45.6725 34.7292 -0.0995 -28.05 -0.2431 118.613 -43.3378 149.888 0.0679 -23.3996 -0.1402 27.0048 -3.79248 -36.1265 0.7932 -9.069 2.5189 -3.88689e-006 -2.10143e-006 -7.10373e-006 -0.8272 -3.3923 0.5977 -2.03084e-006 -4.41061e-007 2.28242e-006 -0.5649 -2.3158 0.4082 1.59028e-015 -1.89933e-015 -5.28022e-015 0.9159 -9.2044 0.2193 -3.88689e-006 -2.10143e-006 -7.10373e-006 0.0117 -4.1944 -0.0248 -0.0128274 0.00233453 8.81083e-005 0.0071 -2.3249 -0.0142 2.24402e-032 -2.70223e-016 4.75802e-015 0.6113 -8.7231 -2.0637 -3.88689e-006 -2.10143e-006 -7.10373e-006 -0.1927 -3.8059 -0.2383 -0.016066 0.00298548 0.000857144 -0.1091 -2.1688 -0.1362 -1.67629e-006 6.95617e-006 3.08601e-010 -0.6151 -8.0947 -3.5641 -3.88689e-006 -2.10143e-006 -7.10373e-006 -0.4882 -2.341 -0.6462 -0.0126359 0.00313311 0.00284043 -0.3575 -1.7167 -0.4742 6.36111e-015 8.61918e-016 1.9168e-015 -1.42 -1.8761 1.4223 -3.88689e-006 -2.10143e-006 -7.10373e-006 -1.1471 -3.4929 2.6334 -2.03084e-006 -4.41061e-007 2.28242e-006 -0.823 -2.3 1.6571 1.59028e-015 -1.89933e-015 -5.28022e-015 -2.2603 21.606 7.4023 9.58538 0.831682 -17.8081 -13.5187 -1.1334 -5.0155 -113.924 -48.2099 -32.5418 0.0994 -28.0499 -0.2431 -109.576 -32.2849 -138.582 -0.0679 -23.3996 -0.1402 -27.6152 -4.43338 35.4454 -0.7932 -9.0691 2.5189 -3.18055e-015 0 -4.77083e-015 0.8272 -3.3923 0.5977 0 0 -1.11319e-014 0.565 -2.3158 0.4082 0 0 -8.74653e-015 -0.916 -9.2044 0.2193 -3.18055e-015 0 -4.77083e-015 -0.0117 -4.1944 -0.0248 0.0129429 0.00231615 -8.57418e-005 -0.0071 -2.3249 -0.0142 0 0 -2.78299e-015 -0.6113 -8.7231 -2.0637 -3.18055e-015 0 -4.77083e-015 0.1927 -3.8059 -0.2383 0.016334 0.00303283 -0.000876898 0.1091 -2.1688 -0.1362 -0 0 6.75868e-015 0.6151 -8.0947 -3.564 -3.18055e-015 0 -4.77083e-015 0.4882 -2.341 -0.6462 0.0145764 0.00367461 -0.00325103 0.3574 -1.7166 -0.4742 3.18055e-015 6.36111e-015 4.37326e-015 1.4199 -1.8761 1.4221 -3.18055e-015 0 -4.77083e-015 1.1472 -3.4929 2.6336 0 0 -1.11319e-014 0.8229 -2.3 1.6571 0 0 -8.74653e-015 -9.412 3.9771 -0.7758 -106.03 -61.0597 -119.041 -0.7531 -40.938 0 -173.572 53.1236 171.972 3.55271e-015 -40.1986 3.55271e-015 -13.2398 45.9033 4.33857 1.77636e-015 -4.4182 9.239 1.34281e-008 -3.1806e-006 -3.3208e-006 9.4119 3.9773 -0.7758 105.867 -61.2399 118.78 0.7532 -40.9383 -7.10543e-015 173.653 53.31 -172.02 -7.10543e-015 -40.1986 -7.10543e-015 13.0257 45.3071 -4.26507 0 -4.4182 9.239 -8.60659e-007 -2.04373e-007 2.25625e-006 
-0.00121181 24.264 43.1438 -0.0268159 -74.9991 179.979 -4.33681e-019 8.7983 -4.7612 -0.585139 3.8315 -0.426447 0 8.0291 0.4195 -1.14547 7.66711 -0.816306 5.55111e-017 9.9351 -2.2114 -1.14547 7.66709 -0.816306 1.11022e-016 22.3885 -0.4656 -8.76517e-006 -0.632192 -6.82202e-006 -0.0001 12.643 3.4389 -1.44761e-006 -16.4051 -7.46062e-007 2.2603 21.606 7.4023 -2.71254 3.3078 12.5584 13.5163 -1.1332 -5.0146 118.465 -41.7163 33.8381 -0.0995 -28.05 -0.2431 109.337 -41.9728 138.811 0.0679 -23.3996 -0.1402 25.1712 -3.65238 -33.7446 0.7932 -9.069 2.5189 -9.54166e-015 6.36111e-015 -1.23246e-014 -0.8272 -3.3923 0.5977 -1.59028e-015 6.36111e-015 3.97569e-016 -0.5649 -2.3158 0.4082 -3.53113e-031 3.18055e-015 6.36111e-015 0.9159 -9.2044 0.2193 -9.54166e-015 6.36111e-015 -1.23246e-014 0.0117 -4.1944 -0.0248 -0.0128183 0.00230832 9.10609e-005 0.0071 -2.3249 -0.0142 1.59028e-015 -4.77083e-015 4.77083e-015 0.6113 -8.7231 -2.0637 -9.54166e-015 6.36111e-015 -1.23246e-014 -0.1927 -3.8059 -0.2383 -0.0160778 0.00299037 0.00085666 -0.1091 -2.1688 -0.1362 3.18055e-015 1.59028e-015 -1.15295e-014 -0.6151 -8.0947 -3.5641 -9.54166e-015 6.36111e-015 -1.23246e-014 -0.4882 -2.341 -0.6462 -0.0125973 0.00311383 0.00282522 -0.3575 -1.7167 -0.4742 -3.18055e-015 1.59028e-015 -6.75868e-015 -1.42 -1.8761 1.4223 -9.54166e-015 6.36111e-015 -1.23246e-014 -1.1471 -3.4929 2.6334 -1.59028e-015 6.36111e-015 3.97569e-016 -0.823 -2.3 1.6571 -3.53113e-031 3.18055e-015 6.36111e-015 -2.2603 21.606 7.4023 9.05007 0.824171 -16.3382 -13.5187 -1.1334 -5.0155 -112.818 -44.3752 -31.5554 0.0994 -28.0499 -0.2431 -117.189 -42.7336 -144.385 -0.0679 -23.3996 -0.1402 -25.7582 -4.27018 33.1131 -0.7932 -9.0691 2.5189 1.59028e-015 6.36111e-015 7.15625e-015 0.8272 -3.3923 0.5977 1.65105e-006 -6.65421e-008 -2.34309e-006 0.565 -2.3158 0.4082 -1.59028e-015 1.59028e-015 -5.96354e-015 -0.916 -9.2044 0.2193 1.59028e-015 6.36111e-015 7.15625e-015 -0.0117 -4.1944 -0.0248 0.0129843 0.00231811 -8.86963e-005 -0.0071 -2.3249 -0.0142 -3.18055e-015 4.77083e-015 -7.15625e-015 -0.6113 -8.7231 -2.0637 1.59028e-015 6.36111e-015 7.15625e-015 0.1927 -3.8059 -0.2383 0.016335 0.00302625 -0.000872488 0.1091 -2.1688 -0.1362 6.911e-006 -3.94138e-006 6.06561e-006 0.6151 -8.0947 -3.564 1.59028e-015 6.36111e-015 7.15625e-015 0.4882 -2.341 -0.6462 0.0146077 0.00368672 -0.00326752 0.3574 -1.7166 -0.4742 1.59028e-015 1.59028e-015 -2.78299e-015 1.4199 -1.8761 1.4221 1.59028e-015 6.36111e-015 7.15625e-015 1.1472 -3.4929 2.6336 1.65105e-006 -6.65421e-008 -2.34309e-006 0.8229 -2.3 1.6571 -1.59028e-015 1.59028e-015 -5.96354e-015 -9.412 3.9771 -0.7758 -93.3695 -65.3954 -107.21 -0.7531 -40.938 -3.55271e-015 -172.617 61.4027 171.496 3.55271e-015 -40.1986 0 -12.2868 42.2266 3.90755 -7.10543e-015 -4.4182 9.239 2.38542e-015 1.90833e-014 -2.38542e-015 9.4119 3.9773 -0.7758 93.1151 -65.5299 106.852 0.7532 -40.9383 3.55271e-015 172.701 61.5824 -171.545 0 -40.1986 0 12.1012 41.6859 -3.85182 -3.55271e-015 -4.4182 9.239 2.03845e-006 4.02188e-006 5.84367e-009 
